<svg xmlns="http://www.w3.org/2000/svg" xmlns:xlink="http://www.w3.org/1999/xlink" width="500" zoomAndPan="magnify" viewBox="0 0 375 374.999991" height="500" preserveAspectRatio="xMidYMid meet" version="1.0"><defs><filter x="0%" y="0%" width="100%" height="100%" id="30086b860c"><feColorMatrix values="0 0 0 0 1 0 0 0 0 1 0 0 0 0 1 0 0 0 1 0" color-interpolation-filters="sRGB"/></filter><g/><clipPath id="548a0130e2"><path d="M 67 28 L 251 28 L 251 333 L 67 333 Z M 67 28 " clip-rule="nonzero"/></clipPath><clipPath id="1d6d1bf028"><path d="M 134.726562 28.054688 L 310.722656 156.410156 L 182.367188 332.40625 L 6.371094 204.050781 Z M 134.726562 28.054688 " clip-rule="nonzero"/></clipPath><clipPath id="adbdfc0db5"><path d="M 187.527344 66.5625 C 255.410156 116.070312 270.382812 211.722656 220.875 279.609375 L 182.367188 332.40625 L 129.566406 293.898438 C 61.683594 244.390625 46.710938 148.734375 96.222656 80.851562 L 134.726562 28.054688 Z M 187.527344 66.5625 " clip-rule="nonzero"/></clipPath><clipPath id="0cb41efd46"><path d="M 0 0 L 184 0 L 184 304.640625 L 0 304.640625 Z M 0 0 " clip-rule="nonzero"/></clipPath><clipPath id="69a3ad546b"><path d="M 67.726562 0.0546875 L 243.722656 128.410156 L 115.367188 304.40625 L -60.628906 176.050781 Z M 67.726562 0.0546875 " clip-rule="nonzero"/></clipPath><clipPath id="0430e774ff"><path d="M 120.527344 38.5625 C 188.410156 88.070312 203.382812 183.722656 153.875 251.609375 L 115.367188 304.40625 L 62.566406 265.898438 C -5.316406 216.390625 -20.289062 120.734375 29.222656 52.851562 L 67.726562 0.0546875 Z M 120.527344 38.5625 " clip-rule="nonzero"/></clipPath><clipPath id="89901d7b6b"><rect x="0" width="184" y="0" height="305"/></clipPath><clipPath id="6c6f107a33"><path d="M 126 33 L 312 33 L 312 333 L 126 333 Z M 126 33 " clip-rule="nonzero"/></clipPath><clipPath id="a1772a7913"><path d="M 255.480469 33.121094 L 368.625 219.261719 L 182.484375 332.40625 L 69.339844 146.265625 Z M 255.480469 33.121094 " clip-rule="nonzero"/></clipPath><clipPath id="0f55b0e512"><path d="M 289.425781 88.964844 C 333.066406 160.761719 310.125 254.820312 238.328125 298.464844 L 182.484375 332.40625 L 148.542969 276.566406 C 104.902344 204.769531 127.84375 110.707031 199.640625 67.066406 L 255.480469 33.121094 Z M 289.425781 88.964844 " clip-rule="nonzero"/></clipPath><clipPath id="60dbdf223d"><path d="M 0 0.121094 L 186 0.121094 L 186 299.640625 L 0 299.640625 Z M 0 0.121094 " clip-rule="nonzero"/></clipPath><clipPath id="89d08cb7f1"><path d="M 129.480469 0.121094 L 242.625 186.261719 L 56.484375 299.40625 L -56.660156 113.265625 Z M 129.480469 0.121094 " clip-rule="nonzero"/></clipPath><clipPath id="22807b1113"><path d="M 163.425781 55.964844 C 207.066406 127.761719 184.125 221.820312 112.328125 265.464844 L 56.484375 299.40625 L 22.542969 243.566406 C -21.097656 171.769531 1.84375 77.707031 73.640625 34.066406 L 129.480469 0.121094 Z M 163.425781 55.964844 " clip-rule="nonzero"/></clipPath><clipPath id="914cf4770d"><rect x="0" width="186" y="0" height="300"/></clipPath><mask id="82f7b13cbf"><g filter="url(#30086b860c)"><rect x="-37.5" width="450" fill="#000000" y="-37.499999" height="449.999989" fill-opacity="0.16"/></g></mask><clipPath id="ba46459083"><path d="M 61 1 L 245 1 L 245 305.640625 L 61 305.640625 Z M 61 1 " clip-rule="nonzero"/></clipPath><clipPath id="cfed409b97"><path d="M 128.726562 1.054688 L 304.722656 129.410156 L 176.367188 305.40625 L 0.371094 177.050781 Z M 128.726562 1.054688 " clip-rule="nonzero"/></clipPath><clipPath id="94892cb2f7"><path d="M 181.527344 39.5625 C 249.410156 89.070312 264.382812 184.722656 214.875 252.609375 L 176.367188 305.40625 L 123.566406 266.898438 C 55.683594 217.390625 40.710938 121.734375 90.222656 53.851562 L 128.726562 1.054688 Z M 181.527344 39.5625 " clip-rule="nonzero"/></clipPath><clipPath id="17eedf280e"><path d="M 0 0 L 184 0 L 184 304.640625 L 0 304.640625 Z M 0 0 " clip-rule="nonzero"/></clipPath><clipPath id="62e6125e89"><path d="M 67.726562 0.0546875 L 243.722656 128.410156 L 115.367188 304.40625 L -60.628906 176.050781 Z M 67.726562 0.0546875 " clip-rule="nonzero"/></clipPath><clipPath id="d3a3aa94b5"><path d="M 120.527344 38.5625 C 188.410156 88.070312 203.382812 183.722656 153.875 251.609375 L 115.367188 304.40625 L 62.566406 265.898438 C -5.316406 216.390625 -20.289062 120.734375 29.222656 52.851562 L 67.726562 0.0546875 Z M 120.527344 38.5625 " clip-rule="nonzero"/></clipPath><clipPath id="878f9ab6a4"><rect x="0" width="184" y="0" height="305"/></clipPath><clipPath id="9d6d8ea445"><rect x="0" width="305" y="0" height="306"/></clipPath><clipPath id="e2ba47ae45"><path d="M 5 4 L 258 4 L 258 250.199219 L 5 250.199219 Z M 5 4 " clip-rule="nonzero"/></clipPath><clipPath id="e6fb178439"><path d="M 0.160156 0.839844 L 253 0.839844 L 253 247 L 0.160156 247 Z M 0.160156 0.839844 " clip-rule="nonzero"/></clipPath><clipPath id="826f6a6cdb"><rect x="0" width="259" y="0" height="251"/></clipPath><clipPath id="1e7036c830"><rect x="0" width="77" y="0" height="74"/></clipPath><clipPath id="5db794c74a"><rect x="0" width="77" y="0" height="74"/></clipPath></defs><g clip-path="url(#548a0130e2)"><g clip-path="url(#1d6d1bf028)"><g clip-path="url(#adbdfc0db5)"><g transform="matrix(1, 0, 0, 1, 67, 28)"><g clip-path="url(#89901d7b6b)"><g clip-path="url(#0cb41efd46)"><g clip-path="url(#69a3ad546b)"><g clip-path="url(#0430e774ff)"><path fill="#d11c25" d="M 67.726562 0.0546875 L 243.722656 128.410156 L 115.367188 304.40625 L -60.628906 176.050781 Z M 67.726562 0.0546875 " fill-opacity="1" fill-rule="nonzero"/></g></g></g></g></g></g></g></g><g clip-path="url(#6c6f107a33)"><g clip-path="url(#a1772a7913)"><g clip-path="url(#0f55b0e512)"><g transform="matrix(1, 0, 0, 1, 126, 33)"><g clip-path="url(#914cf4770d)"><g clip-path="url(#60dbdf223d)"><g clip-path="url(#89d08cb7f1)"><g clip-path="url(#22807b1113)"><path fill="#f2ae11" d="M 129.480469 0.121094 L 242.625 186.261719 L 56.484375 299.40625 L -56.660156 113.265625 Z M 129.480469 0.121094 " fill-opacity="1" fill-rule="nonzero"/></g></g></g></g></g></g></g></g><g mask="url(#82f7b13cbf)"><g transform="matrix(1, 0, 0, 1, 6, 27)"><g clip-path="url(#9d6d8ea445)"><g clip-path="url(#ba46459083)"><g clip-path="url(#cfed409b97)"><g clip-path="url(#94892cb2f7)"><g transform="matrix(1, 0, 0, 1, 61, 1)"><g clip-path="url(#878f9ab6a4)"><g clip-path="url(#17eedf280e)"><g clip-path="url(#62e6125e89)"><g clip-path="url(#d3a3aa94b5)"><path fill="#d11c25" d="M 67.726562 0.0546875 L 243.722656 128.410156 L 115.367188 304.40625 L -60.628906 176.050781 Z M 67.726562 0.0546875 " fill-opacity="1" fill-rule="nonzero"/></g></g></g></g></g></g></g></g></g></g></g><g transform="matrix(1, 0, 0, 1, 62, 75)"><g clip-path="url(#826f6a6cdb)"><g clip-path="url(#e2ba47ae45)"><path fill="#f8fbfc" d="M 105.90625 174.511719 C 102.644531 181.894531 100.625 189.710938 100.925781 198 C 101.441406 212.597656 110.546875 228.3125 125.273438 232.566406 C 140.730469 237.03125 152.367188 226.425781 150.265625 210.496094 C 148.417969 196.410156 138.585938 183.441406 129.566406 172.191406 L 132.1875 168.757812 C 133.777344 166.652344 135.40625 164.589844 137.125 162.617188 C 139.53125 159.867188 142.019531 157.164062 144.554688 154.5 C 164.90625 178.03125 187.277344 211.523438 163.746094 235.914062 C 138.242188 262.367188 91.695312 249.269531 80.359375 215.820312 C 73.359375 195.121094 79.929688 176.011719 91.480469 158.792969 C 95.128906 153.382812 99.25 148.144531 103.632812 143.121094 C 99.679688 139.214844 95.816406 135.21875 91.695312 131.570312 C 90.964844 130.925781 90.105469 130.324219 89.375 129.679688 C 65.714844 109.199219 39.007812 92.195312 10.410156 79.527344 C -2.6875 73.730469 14.445312 60.503906 23.632812 64.582031 C 52.617188 77.421875 79.671875 93.996094 103.847656 114.222656 C 108.871094 118.429688 113.808594 122.722656 118.574219 127.234375 C 123.425781 122.382812 128.152344 117.785156 132.574219 113.449219 C 133.003906 113.019531 133.476562 112.546875 133.90625 112.160156 C 168.257812 77.9375 202.609375 43.757812 236.960938 9.535156 C 240.867188 5.625 247.609375 3.136719 253.0625 5.242188 C 257.613281 7 259.761719 12.066406 255.898438 15.890625 C 224.765625 46.890625 193.632812 77.9375 162.460938 108.941406 C 156.964844 114.394531 151.382812 119.847656 145.84375 125.300781 C 140.945312 130.152344 136.050781 135.003906 131.328125 139.988281 C 128.28125 143.207031 125.273438 146.46875 122.355469 149.820312 C 120.378906 152.09375 118.445312 154.5 116.597656 156.949219 C 112.390625 162.402344 108.699219 168.285156 105.90625 174.511719 Z M 115.441406 85.710938 C 134.933594 85.710938 150.78125 69.90625 150.78125 50.371094 C 150.78125 30.875 134.976562 15.03125 115.441406 15.03125 C 95.902344 15.03125 80.101562 30.832031 80.101562 50.371094 C 80.101562 69.863281 95.902344 85.710938 115.441406 85.710938 Z M 115.441406 85.710938 " fill-opacity="1" fill-rule="nonzero"/></g><g clip-path="url(#e6fb178439)"><path fill="#174499" d="M 100.660156 171.011719 C 97.394531 178.398438 95.375 186.210938 95.675781 194.5 C 96.191406 209.097656 105.296875 224.816406 120.023438 229.066406 C 135.484375 233.53125 147.121094 222.925781 145.015625 206.996094 C 143.167969 192.910156 133.335938 179.941406 124.320312 168.691406 L 126.9375 165.257812 C 128.527344 163.152344 130.160156 161.09375 131.875 159.117188 C 134.28125 156.367188 136.769531 153.664062 139.304688 151 C 159.660156 174.53125 182.03125 208.027344 158.5 232.414062 C 132.992188 258.867188 86.445312 245.769531 75.109375 212.320312 C 68.109375 191.621094 74.679688 172.515625 86.230469 155.296875 C 89.878906 149.882812 94.003906 144.644531 98.382812 139.621094 C 94.433594 135.714844 90.566406 131.722656 86.445312 128.070312 C 85.714844 127.425781 84.855469 126.824219 84.125 126.179688 C 60.464844 105.699219 33.757812 88.695312 5.160156 76.027344 C -7.9375 70.230469 9.195312 57.003906 18.386719 61.085938 C 47.371094 73.921875 74.421875 90.5 98.597656 110.722656 C 103.621094 114.929688 108.558594 119.226562 113.324219 123.734375 C 118.179688 118.882812 122.902344 114.285156 127.324219 109.949219 C 127.753906 109.519531 128.226562 109.046875 128.65625 108.660156 C 163.007812 74.4375 197.359375 40.257812 231.710938 6.035156 C 235.621094 2.128906 242.359375 -0.363281 247.816406 1.742188 C 252.367188 3.5 254.511719 8.570312 250.648438 12.390625 C 219.515625 43.394531 188.386719 74.4375 157.210938 105.441406 C 151.714844 110.894531 146.132812 116.347656 140.59375 121.800781 C 135.699219 126.652344 130.800781 131.507812 126.078125 136.488281 C 123.03125 139.707031 120.023438 142.972656 117.105469 146.320312 C 115.128906 148.597656 113.195312 151 111.351562 153.449219 C 107.140625 158.902344 103.449219 164.785156 100.660156 171.011719 Z M 110.191406 82.210938 C 129.6875 82.210938 145.53125 66.410156 145.53125 46.871094 C 145.53125 27.375 129.730469 11.53125 110.191406 11.53125 C 90.652344 11.53125 74.851562 27.332031 74.851562 46.871094 C 74.851562 66.367188 90.652344 82.210938 110.191406 82.210938 Z M 110.191406 82.210938 " fill-opacity="1" fill-rule="nonzero"/></g></g></g><g transform="matrix(1, 0, 0, 1, 200, 161)"><g clip-path="url(#1e7036c830)"><g fill="#f8fbfc" fill-opacity="1"><g transform="translate(17.459708, 69.166054)"><g><path d="M -0.75 -25.140625 C 0.113281 -24.890625 0.9375 -24.472656 1.71875 -23.890625 C 2.507812 -23.304688 3.226562 -22.644531 3.875 -21.90625 C 4.53125 -21.175781 5.101562 -20.453125 5.59375 -19.734375 C 6.332031 -18.640625 6.875 -17.453125 7.21875 -16.171875 C 7.5625 -14.898438 7.644531 -13.601562 7.46875 -12.28125 C 7.289062 -11.007812 6.847656 -9.789062 6.140625 -8.625 C 5.441406 -7.46875 4.5 -6.609375 3.3125 -6.046875 C 2.53125 -5.671875 1.710938 -5.488281 0.859375 -5.5 C 0.00390625 -5.519531 -0.832031 -5.664062 -1.65625 -5.9375 C -2.476562 -6.21875 -3.234375 -6.582031 -3.921875 -7.03125 C -4.679688 -7.5 -5.460938 -8.140625 -6.265625 -8.953125 C -7.078125 -9.765625 -7.8125 -10.671875 -8.46875 -11.671875 C -9.132812 -12.679688 -9.648438 -13.71875 -10.015625 -14.78125 C -10.390625 -15.851562 -10.523438 -16.898438 -10.421875 -17.921875 C -10.390625 -19.054688 -10.082031 -20.125 -9.5 -21.125 C -8.914062 -22.125 -8.15625 -22.976562 -7.21875 -23.6875 C -6.289062 -24.40625 -5.265625 -24.898438 -4.140625 -25.171875 C -3.015625 -25.441406 -1.882812 -25.429688 -0.75 -25.140625 Z M 3.140625 -12.96875 C 3.203125 -13.894531 3.0625 -14.78125 2.71875 -15.625 C 2.382812 -16.46875 1.929688 -17.25 1.359375 -17.96875 C 0.796875 -18.695312 0.179688 -19.335938 -0.484375 -19.890625 C -1.171875 -20.460938 -1.910156 -20.757812 -2.703125 -20.78125 C -3.492188 -20.800781 -4.222656 -20.488281 -4.890625 -19.84375 C -5.273438 -19.488281 -5.554688 -19.050781 -5.734375 -18.53125 C -5.910156 -18.007812 -5.972656 -17.492188 -5.921875 -16.984375 C -5.859375 -16.367188 -5.644531 -15.75 -5.28125 -15.125 C -4.925781 -14.507812 -4.578125 -13.957031 -4.234375 -13.46875 C -3.460938 -12.375 -2.515625 -11.460938 -1.390625 -10.734375 C -1.078125 -10.535156 -0.726562 -10.351562 -0.34375 -10.1875 C 0.03125 -10.019531 0.421875 -9.957031 0.828125 -10 C 1.441406 -10.082031 1.957031 -10.390625 2.375 -10.921875 C 2.789062 -11.453125 3.039062 -12.039062 3.125 -12.6875 C 3.125 -12.757812 3.128906 -12.851562 3.140625 -12.96875 Z M 3.140625 -12.96875 "/></g></g></g><g fill="#f8fbfc" fill-opacity="1"><g transform="translate(31.583226, 56.065031)"><g><path d="M 1.234375 -24.234375 C 2.066406 -23.523438 2.875 -22.675781 3.65625 -21.6875 C 4.4375 -20.695312 5.117188 -19.617188 5.703125 -18.453125 C 6.296875 -17.285156 6.722656 -16.085938 6.984375 -14.859375 C 7.242188 -13.628906 7.28125 -12.421875 7.09375 -11.234375 C 6.914062 -10.054688 6.441406 -8.960938 5.671875 -7.953125 C 4.867188 -6.898438 3.984375 -6.210938 3.015625 -5.890625 C 2.054688 -5.578125 1.0625 -5.53125 0.03125 -5.75 C -1 -5.976562 -2.03125 -6.390625 -3.0625 -6.984375 C -4.101562 -7.585938 -5.09375 -8.28125 -6.03125 -9.0625 C -6.96875 -9.851562 -7.820312 -10.660156 -8.59375 -11.484375 C -9.375 -12.304688 -10.023438 -13.046875 -10.546875 -13.703125 C -10.910156 -14.140625 -11.085938 -14.59375 -11.078125 -15.0625 C -11.078125 -15.539062 -10.953125 -15.972656 -10.703125 -16.359375 C -10.460938 -16.753906 -10.140625 -17.054688 -9.734375 -17.265625 C -9.328125 -17.472656 -8.90625 -17.546875 -8.46875 -17.484375 C -8.039062 -17.421875 -7.644531 -17.171875 -7.28125 -16.734375 C -7.09375 -16.492188 -6.765625 -16.109375 -6.296875 -15.578125 C -5.835938 -15.054688 -5.285156 -14.472656 -4.640625 -13.828125 C -3.992188 -13.179688 -3.3125 -12.566406 -2.59375 -11.984375 C -1.875 -11.410156 -1.179688 -10.945312 -0.515625 -10.59375 C 0.148438 -10.25 0.738281 -10.097656 1.25 -10.140625 C 1.757812 -10.191406 2.148438 -10.550781 2.421875 -11.21875 C 2.785156 -12.101562 2.875 -13.019531 2.6875 -13.96875 C 2.507812 -14.914062 2.164062 -15.84375 1.65625 -16.75 C 1.144531 -17.65625 0.5625 -18.488281 -0.09375 -19.25 C -0.75 -20.019531 -1.394531 -20.671875 -2.03125 -21.203125 C -2.476562 -21.566406 -2.71875 -21.960938 -2.75 -22.390625 C -2.789062 -22.816406 -2.691406 -23.210938 -2.453125 -23.578125 C -2.222656 -23.941406 -1.898438 -24.238281 -1.484375 -24.46875 C -1.078125 -24.707031 -0.628906 -24.816406 -0.140625 -24.796875 C 0.347656 -24.773438 0.804688 -24.585938 1.234375 -24.234375 Z M 1.234375 -24.234375 "/></g></g></g><g fill="#f8fbfc" fill-opacity="1"><g transform="translate(45.488789, 43.166185)"><g><path d="M -3.96875 -24.21875 C -3.53125 -24.550781 -3.066406 -24.707031 -2.578125 -24.6875 C -2.085938 -24.664062 -1.640625 -24.523438 -1.234375 -24.265625 C -0.835938 -24.003906 -0.539062 -23.679688 -0.34375 -23.296875 C -0.144531 -22.910156 -0.0820312 -22.503906 -0.15625 -22.078125 C -0.226562 -21.648438 -0.5 -21.28125 -0.96875 -20.96875 C -1.726562 -20.414062 -2.484375 -19.835938 -3.234375 -19.234375 C -1.847656 -17.535156 -0.472656 -15.847656 0.890625 -14.171875 C 2.265625 -12.503906 3.644531 -10.832031 5.03125 -9.15625 C 5.394531 -8.71875 5.570312 -8.257812 5.5625 -7.78125 C 5.5625 -7.300781 5.429688 -6.867188 5.171875 -6.484375 C 4.921875 -6.109375 4.597656 -5.8125 4.203125 -5.59375 C 3.816406 -5.375 3.40625 -5.296875 2.96875 -5.359375 C 2.53125 -5.421875 2.125 -5.675781 1.75 -6.125 C 0.375 -7.800781 -1.003906 -9.484375 -2.390625 -11.171875 C -3.773438 -12.859375 -5.15625 -14.539062 -6.53125 -16.21875 C -7.164062 -15.601562 -7.765625 -14.960938 -8.328125 -14.296875 C -8.710938 -13.878906 -9.117188 -13.644531 -9.546875 -13.59375 C -9.984375 -13.550781 -10.390625 -13.65625 -10.765625 -13.90625 C -11.148438 -14.15625 -11.453125 -14.484375 -11.671875 -14.890625 C -11.890625 -15.296875 -11.984375 -15.734375 -11.953125 -16.203125 C -11.929688 -16.679688 -11.734375 -17.140625 -11.359375 -17.578125 C -9.160156 -20.066406 -6.695312 -22.28125 -3.96875 -24.21875 Z M -3.96875 -24.21875 "/></g></g></g><g fill="#f8fbfc" fill-opacity="1"><g transform="translate(58.064822, 31.500615)"><g><path d="M -4.8125 -23.9375 C -5.113281 -24.425781 -5.222656 -24.882812 -5.140625 -25.3125 C -5.066406 -25.75 -4.863281 -26.113281 -4.53125 -26.40625 C -4.195312 -26.695312 -3.800781 -26.898438 -3.34375 -27.015625 C -2.882812 -27.128906 -2.429688 -27.109375 -1.984375 -26.953125 C -1.535156 -26.796875 -1.160156 -26.46875 -0.859375 -25.96875 C 2.066406 -21.25 5.269531 -16.722656 8.75 -12.390625 C 9.113281 -11.929688 9.289062 -11.460938 9.28125 -10.984375 C 9.28125 -10.515625 9.148438 -10.082031 8.890625 -9.6875 C 8.628906 -9.300781 8.304688 -9.003906 7.921875 -8.796875 C 7.535156 -8.585938 7.117188 -8.515625 6.671875 -8.578125 C 6.234375 -8.640625 5.835938 -8.898438 5.484375 -9.359375 C 4.890625 -10.078125 4.3125 -10.800781 3.75 -11.53125 C 3.195312 -12.269531 2.632812 -13.015625 2.0625 -13.765625 L -0.90625 -11.015625 C -0.21875 -10.046875 0.472656 -9.082031 1.171875 -8.125 C 1.867188 -7.164062 2.578125 -6.207031 3.296875 -5.25 C 3.617188 -4.78125 3.765625 -4.304688 3.734375 -3.828125 C 3.710938 -3.359375 3.578125 -2.925781 3.328125 -2.53125 C 3.078125 -2.132812 2.753906 -1.828125 2.359375 -1.609375 C 1.972656 -1.398438 1.566406 -1.332031 1.140625 -1.40625 C 0.710938 -1.476562 0.335938 -1.75 0.015625 -2.21875 C -0.960938 -3.539062 -1.9375 -4.867188 -2.90625 -6.203125 C -3.882812 -7.535156 -4.859375 -8.859375 -5.828125 -10.171875 C -6.296875 -10.828125 -6.757812 -11.472656 -7.21875 -12.109375 C -7.675781 -12.753906 -8.144531 -13.390625 -8.625 -14.015625 C -9.039062 -14.578125 -9.492188 -15.160156 -9.984375 -15.765625 C -10.472656 -16.367188 -10.851562 -17.003906 -11.125 -17.671875 C -11.34375 -18.191406 -11.382812 -18.675781 -11.25 -19.125 C -11.113281 -19.582031 -10.867188 -19.960938 -10.515625 -20.265625 C -10.171875 -20.578125 -9.773438 -20.785156 -9.328125 -20.890625 C -8.878906 -20.992188 -8.457031 -20.957031 -8.0625 -20.78125 C -7.675781 -20.601562 -7.378906 -20.242188 -7.171875 -19.703125 C -6.890625 -19.066406 -6.503906 -18.457031 -6.015625 -17.875 C -5.535156 -17.289062 -5.097656 -16.71875 -4.703125 -16.15625 C -4.503906 -15.894531 -4.3125 -15.632812 -4.125 -15.375 C -3.945312 -15.125 -3.765625 -14.867188 -3.578125 -14.609375 L -0.546875 -17.421875 C -1.285156 -18.484375 -2.007812 -19.554688 -2.71875 -20.640625 C -3.425781 -21.734375 -4.125 -22.832031 -4.8125 -23.9375 Z M -4.8125 -23.9375 "/></g></g></g></g></g><g transform="matrix(1, 0, 0, 1, 203, 161)"><g clip-path="url(#5db794c74a)"><g fill="#174499" fill-opacity="1"><g transform="translate(17.429313, 69.347784)"><g><path d="M -0.75 -25.140625 C 0.113281 -24.890625 0.9375 -24.472656 1.71875 -23.890625 C 2.507812 -23.304688 3.226562 -22.644531 3.875 -21.90625 C 4.53125 -21.175781 5.101562 -20.453125 5.59375 -19.734375 C 6.332031 -18.640625 6.875 -17.453125 7.21875 -16.171875 C 7.5625 -14.898438 7.644531 -13.601562 7.46875 -12.28125 C 7.289062 -11.007812 6.847656 -9.789062 6.140625 -8.625 C 5.441406 -7.46875 4.5 -6.609375 3.3125 -6.046875 C 2.53125 -5.671875 1.710938 -5.488281 0.859375 -5.5 C 0.00390625 -5.519531 -0.832031 -5.664062 -1.65625 -5.9375 C -2.476562 -6.21875 -3.234375 -6.582031 -3.921875 -7.03125 C -4.679688 -7.5 -5.460938 -8.140625 -6.265625 -8.953125 C -7.078125 -9.765625 -7.8125 -10.671875 -8.46875 -11.671875 C -9.132812 -12.679688 -9.648438 -13.71875 -10.015625 -14.78125 C -10.390625 -15.851562 -10.523438 -16.898438 -10.421875 -17.921875 C -10.390625 -19.054688 -10.082031 -20.125 -9.5 -21.125 C -8.914062 -22.125 -8.15625 -22.976562 -7.21875 -23.6875 C -6.289062 -24.40625 -5.265625 -24.898438 -4.140625 -25.171875 C -3.015625 -25.441406 -1.882812 -25.429688 -0.75 -25.140625 Z M 3.140625 -12.96875 C 3.203125 -13.894531 3.0625 -14.78125 2.71875 -15.625 C 2.382812 -16.46875 1.929688 -17.25 1.359375 -17.96875 C 0.796875 -18.695312 0.179688 -19.335938 -0.484375 -19.890625 C -1.171875 -20.460938 -1.910156 -20.757812 -2.703125 -20.78125 C -3.492188 -20.800781 -4.222656 -20.488281 -4.890625 -19.84375 C -5.273438 -19.488281 -5.554688 -19.050781 -5.734375 -18.53125 C -5.910156 -18.007812 -5.972656 -17.492188 -5.921875 -16.984375 C -5.859375 -16.367188 -5.644531 -15.75 -5.28125 -15.125 C -4.925781 -14.507812 -4.578125 -13.957031 -4.234375 -13.46875 C -3.460938 -12.375 -2.515625 -11.460938 -1.390625 -10.734375 C -1.078125 -10.535156 -0.726562 -10.351562 -0.34375 -10.1875 C 0.03125 -10.019531 0.421875 -9.957031 0.828125 -10 C 1.441406 -10.082031 1.957031 -10.390625 2.375 -10.921875 C 2.789062 -11.453125 3.039062 -12.039062 3.125 -12.6875 C 3.125 -12.757812 3.128906 -12.851562 3.140625 -12.96875 Z M 3.140625 -12.96875 "/></g></g></g><g fill="#174499" fill-opacity="1"><g transform="translate(31.55283, 56.246762)"><g><path d="M 1.234375 -24.234375 C 2.066406 -23.523438 2.875 -22.675781 3.65625 -21.6875 C 4.4375 -20.695312 5.117188 -19.617188 5.703125 -18.453125 C 6.296875 -17.285156 6.722656 -16.085938 6.984375 -14.859375 C 7.242188 -13.628906 7.28125 -12.421875 7.09375 -11.234375 C 6.914062 -10.054688 6.441406 -8.960938 5.671875 -7.953125 C 4.867188 -6.898438 3.984375 -6.210938 3.015625 -5.890625 C 2.054688 -5.578125 1.0625 -5.53125 0.03125 -5.75 C -1 -5.976562 -2.03125 -6.390625 -3.0625 -6.984375 C -4.101562 -7.585938 -5.09375 -8.28125 -6.03125 -9.0625 C -6.96875 -9.851562 -7.820312 -10.660156 -8.59375 -11.484375 C -9.375 -12.304688 -10.023438 -13.046875 -10.546875 -13.703125 C -10.910156 -14.140625 -11.085938 -14.59375 -11.078125 -15.0625 C -11.078125 -15.539062 -10.953125 -15.972656 -10.703125 -16.359375 C -10.460938 -16.753906 -10.140625 -17.054688 -9.734375 -17.265625 C -9.328125 -17.472656 -8.90625 -17.546875 -8.46875 -17.484375 C -8.039062 -17.421875 -7.644531 -17.171875 -7.28125 -16.734375 C -7.09375 -16.492188 -6.765625 -16.109375 -6.296875 -15.578125 C -5.835938 -15.054688 -5.285156 -14.472656 -4.640625 -13.828125 C -3.992188 -13.179688 -3.3125 -12.566406 -2.59375 -11.984375 C -1.875 -11.410156 -1.179688 -10.945312 -0.515625 -10.59375 C 0.148438 -10.25 0.738281 -10.097656 1.25 -10.140625 C 1.757812 -10.191406 2.148438 -10.550781 2.421875 -11.21875 C 2.785156 -12.101562 2.875 -13.019531 2.6875 -13.96875 C 2.507812 -14.914062 2.164062 -15.84375 1.65625 -16.75 C 1.144531 -17.65625 0.5625 -18.488281 -0.09375 -19.25 C -0.75 -20.019531 -1.394531 -20.671875 -2.03125 -21.203125 C -2.476562 -21.566406 -2.71875 -21.960938 -2.75 -22.390625 C -2.789062 -22.816406 -2.691406 -23.210938 -2.453125 -23.578125 C -2.222656 -23.941406 -1.898438 -24.238281 -1.484375 -24.46875 C -1.078125 -24.707031 -0.628906 -24.816406 -0.140625 -24.796875 C 0.347656 -24.773438 0.804688 -24.585938 1.234375 -24.234375 Z M 1.234375 -24.234375 "/></g></g></g><g fill="#174499" fill-opacity="1"><g transform="translate(45.458393, 43.347915)"><g><path d="M -3.96875 -24.21875 C -3.53125 -24.550781 -3.066406 -24.707031 -2.578125 -24.6875 C -2.085938 -24.664062 -1.640625 -24.523438 -1.234375 -24.265625 C -0.835938 -24.003906 -0.539062 -23.679688 -0.34375 -23.296875 C -0.144531 -22.910156 -0.0820312 -22.503906 -0.15625 -22.078125 C -0.226562 -21.648438 -0.5 -21.28125 -0.96875 -20.96875 C -1.726562 -20.414062 -2.484375 -19.835938 -3.234375 -19.234375 C -1.847656 -17.535156 -0.472656 -15.847656 0.890625 -14.171875 C 2.265625 -12.503906 3.644531 -10.832031 5.03125 -9.15625 C 5.394531 -8.71875 5.570312 -8.257812 5.5625 -7.78125 C 5.5625 -7.300781 5.429688 -6.867188 5.171875 -6.484375 C 4.921875 -6.109375 4.597656 -5.8125 4.203125 -5.59375 C 3.816406 -5.375 3.40625 -5.296875 2.96875 -5.359375 C 2.53125 -5.421875 2.125 -5.675781 1.75 -6.125 C 0.375 -7.800781 -1.003906 -9.484375 -2.390625 -11.171875 C -3.773438 -12.859375 -5.15625 -14.539062 -6.53125 -16.21875 C -7.164062 -15.601562 -7.765625 -14.960938 -8.328125 -14.296875 C -8.710938 -13.878906 -9.117188 -13.644531 -9.546875 -13.59375 C -9.984375 -13.550781 -10.390625 -13.65625 -10.765625 -13.90625 C -11.148438 -14.15625 -11.453125 -14.484375 -11.671875 -14.890625 C -11.890625 -15.296875 -11.984375 -15.734375 -11.953125 -16.203125 C -11.929688 -16.679688 -11.734375 -17.140625 -11.359375 -17.578125 C -9.160156 -20.066406 -6.695312 -22.28125 -3.96875 -24.21875 Z M -3.96875 -24.21875 "/></g></g></g><g fill="#174499" fill-opacity="1"><g transform="translate(58.034426, 31.682345)"><g><path d="M -4.8125 -23.9375 C -5.113281 -24.425781 -5.222656 -24.882812 -5.140625 -25.3125 C -5.066406 -25.75 -4.863281 -26.113281 -4.53125 -26.40625 C -4.195312 -26.695312 -3.800781 -26.898438 -3.34375 -27.015625 C -2.882812 -27.128906 -2.429688 -27.109375 -1.984375 -26.953125 C -1.535156 -26.796875 -1.160156 -26.46875 -0.859375 -25.96875 C 2.066406 -21.25 5.269531 -16.722656 8.75 -12.390625 C 9.113281 -11.929688 9.289062 -11.460938 9.28125 -10.984375 C 9.28125 -10.515625 9.148438 -10.082031 8.890625 -9.6875 C 8.628906 -9.300781 8.304688 -9.003906 7.921875 -8.796875 C 7.535156 -8.585938 7.117188 -8.515625 6.671875 -8.578125 C 6.234375 -8.640625 5.835938 -8.898438 5.484375 -9.359375 C 4.890625 -10.078125 4.3125 -10.800781 3.75 -11.53125 C 3.195312 -12.269531 2.632812 -13.015625 2.0625 -13.765625 L -0.90625 -11.015625 C -0.21875 -10.046875 0.472656 -9.082031 1.171875 -8.125 C 1.867188 -7.164062 2.578125 -6.207031 3.296875 -5.25 C 3.617188 -4.78125 3.765625 -4.304688 3.734375 -3.828125 C 3.710938 -3.359375 3.578125 -2.925781 3.328125 -2.53125 C 3.078125 -2.132812 2.753906 -1.828125 2.359375 -1.609375 C 1.972656 -1.398438 1.566406 -1.332031 1.140625 -1.40625 C 0.710938 -1.476562 0.335938 -1.75 0.015625 -2.21875 C -0.960938 -3.539062 -1.9375 -4.867188 -2.90625 -6.203125 C -3.882812 -7.535156 -4.859375 -8.859375 -5.828125 -10.171875 C -6.296875 -10.828125 -6.757812 -11.472656 -7.21875 -12.109375 C -7.675781 -12.753906 -8.144531 -13.390625 -8.625 -14.015625 C -9.039062 -14.578125 -9.492188 -15.160156 -9.984375 -15.765625 C -10.472656 -16.367188 -10.851562 -17.003906 -11.125 -17.671875 C -11.34375 -18.191406 -11.382812 -18.675781 -11.25 -19.125 C -11.113281 -19.582031 -10.867188 -19.960938 -10.515625 -20.265625 C -10.171875 -20.578125 -9.773438 -20.785156 -9.328125 -20.890625 C -8.878906 -20.992188 -8.457031 -20.957031 -8.0625 -20.78125 C -7.675781 -20.601562 -7.378906 -20.242188 -7.171875 -19.703125 C -6.890625 -19.066406 -6.503906 -18.457031 -6.015625 -17.875 C -5.535156 -17.289062 -5.097656 -16.71875 -4.703125 -16.15625 C -4.503906 -15.894531 -4.3125 -15.632812 -4.125 -15.375 C -3.945312 -15.125 -3.765625 -14.867188 -3.578125 -14.609375 L -0.546875 -17.421875 C -1.285156 -18.484375 -2.007812 -19.554688 -2.71875 -20.640625 C -3.425781 -21.734375 -4.125 -22.832031 -4.8125 -23.9375 Z M -4.8125 -23.9375 "/></g></g></g></g></g></svg>